<svg xmlns="http://www.w3.org/2000/svg" viewBox="0 0 300 300"><circle class="logo__group--fill" fill="#54345A" cx="150" cy="150" r="150"/><g class="logo__group--cutout" fill="#fff"><path d="M234.694 211.972V192.51c0-6.008-4.969-10.877-11.098-10.877h-10.457c-6.13 0-11.098 4.87-11.098 10.877v53.936c.1 5.936 5.04 10.698 11.098 10.697h10.457c6.129 0 11.098-4.87 11.098-10.877V234.31h-13.07v10.023h-6.513v-9.91a5.295 5.295 0 0 1 2.293-4.36l12.176-8.45c3.208-2.234 5.114-5.852 5.114-9.709m-19.583 4.135v-21.597h6.512V211.5l-6.512 4.494m-42.031-20.528V248.2c.037 6.078 4.995 10.985 11.098 10.985h11.74v-13.018h-9.791v-50.7h9.791V182.45h-9.791v-19.184H173.08v19.184h-9.815v13.017h9.815m-17.978 41.603v-55.437h-12.245v75.51h12.245V237.07m0-66.404v-7.4h-12.245v12.244h12.245v-4.844"/><path d="M124.49 153.063v55.1h12.602v-43.761c.143-3.913 2.135-7.516 5.35-9.677l8.578-6.085v-15.583l-13.928 9.767v-10.17H124.49v20.409m-23.412 27.972l12.176-8.43c3.194-2.21 5.099-5.792 5.113-9.618v-19.483c0-5.993-4.969-10.85-11.098-10.85H96.813c-6.125.011-11.086 4.862-11.099 10.85v53.808c.013 5.988 4.974 10.839 11.099 10.851h10.456c6.13 0 11.098-4.858 11.098-10.851v-12.04H105.32v10.022h-6.535v-9.887a5.323 5.323 0 0 1 2.293-4.35m-2.293-18.07v-17.555h6.535v17.017l-6.535 4.484v-3.946M46.94 139.975v51.655c-.035 3.242 1.422 6.327 3.966 8.4l12.383 10.174 12.382-10.309c2.48-2.059 3.913-5.08 3.92-8.265v-58.977h-13.07v58.034l-3.301 2.74-3.142-2.628v-58.146H46.94v7.322M178.308 51.02h-3.944c-6.13 0-11.099 4.866-11.099 10.868v64.643h13.048V63.819h1.444l5.091 3.008v59.704h13.07V65.75c-.018-3.807-2.048-7.333-5.365-9.318l-6.513-3.84a11.16 11.16 0 0 0-5.732-1.572m-42.72 0a11.228 11.228 0 0 0-7.848 3.179 10.73 10.73 0 0 0-3.25 7.673v53.807a10.73 10.73 0 0 0 3.25 7.673 11.228 11.228 0 0 0 7.848 3.179h10.456c6.13 0 11.099-4.859 11.099-10.852v-12.04h-13.025v10.023h-6.558v-9.91a5.278 5.278 0 0 1 2.293-4.35l12.176-8.43c3.211-2.225 5.117-5.836 5.114-9.685V61.872c0-5.993-4.97-10.852-11.099-10.852h-10.456m8.484 12.78v17.106l-6.512 4.484V63.8h6.558m-25.751-11.94v-3.814a11.02 11.02 0 0 0-4.999-9.135l-4.975-3.243a17.638 17.638 0 0 0-9.723-3.015H85.714v95.918h21.555c6.13 0 11.098-4.948 11.098-11.053V51.86M98.785 97.672v-51.91a4.462 4.462 0 0 1 2.453.73l4.082 2.673v66.503h-6.535V97.672"/></g></svg>