<svg xmlns="http://www.w3.org/2000/svg" viewBox="0 0 300 300"><path fill="#DCDBDB" d="M295 150.001c0 80.078-64.921 144.998-144.998 144.998-80.082 0-145.001-64.92-145.001-144.998 0-80.082 64.919-145 145.001-145 80.077 0 144.998 64.918 144.998 145z"/><path fill="#F3F3F3" d="M84.418 278.076l209.81-122.923.814-.443c-2.542 77.873-66.472 140.336-144.99 140.336-24.185 0-46.739-5.818-66.787-16.275l1.153-.695zm-12.426-6.932l32.538-19.286c-12.047-6.792-13.416-18.883-13.416-18.883H77.15V88.464H64.645c-1.074-28.449 20.529-27.188 20.529-27.188h178.442l1.17-.028c-26.549-34.155-68.105-56.294-114.73-56.294C69.92 4.954 4.958 69.892 4.958 149.996c0 51.216 26.245 95.746 66.329 121.551l.705-.403z"/><path fill="#F3F3F3" d="M120.315 136.674v-33.233c0-3.812-3.922-6.928-8.721-6.928H97.84c-4.796 0-8.721 3.113-8.721 6.928v33.233h31.196zm43.681 0v-33.233c0-3.812-3.921-6.928-8.718-6.928h-13.754c-4.799 0-8.721 3.113-8.721 6.928v33.233h31.193zm43.685 0v-33.233c0-3.812-3.916-6.928-8.713-6.928h-13.76c-4.791 0-8.718 3.113-8.718 6.928v33.233h31.191zm43.689 0v-33.233c0-3.812-3.921-6.928-8.718-6.928h-13.761c-4.796 0-8.718 3.113-8.718 6.928v33.233h31.197zm43.165-.003c-1.299-14.144-4.628-27.466-9.699-40.144l-.764-.015h-11.499c-4.794 0-8.718 3.113-8.718 6.928v33.233h29.921l.759-.002zm-140.999 38.597l-.09 47.513L211.77 187.5s-7.151-3.361-10.139-12.237l-48.095.005z"/></svg>