<svg xmlns="http://www.w3.org/2000/svg" viewBox="-4.705 -0.001 96.448 87.838"><path class="logo__group--fill" fill="#268A8C" d="M71.072 87.837C63.81 76.345 55.623 70.949 55.623 70.949l-.486-.487c-1.528-1.229-1.212-2.646-1.212-2.646.677-2.646 2.57-2.938 2.57-2.938 3.16-.125 3.791-1.272 3.791-1.272 1.12-2.009.045-4.379.045-4.379.199-.786 1.363-1.693 1.363-1.693.194-1.271-.171-1.905-.171-1.905.777-.688 1.145-1.348 1.145-1.348-.196-1.669.239-2.912.239-2.912.389-.49 2.141-.49 2.141-.49 1.94-.979.676-3.039.676-3.039-.974-1.662-1.844-4.011-1.844-4.011-.909-2.315 1.844-5.978 1.844-5.978s12.339 4.115 16.222.296c0 0 3.11-3.722-4.562-9.106 0 0-5.15-3.918-15.444-4.506 0 0-.969-6.463-1.358-8.615 0 0-1.262-4.604-7.773-6.17 0 0-6.605-2.349-14.861-.781 0 0-6.021.58-8.646 4.695 0 0-1.26 2.547-1.553 6.658 0 0-13.113 2.453-19.914 10.091 0 0-10.491 11.063 14.181 10.87l1.411-.104s-3.257 3.578-3.06 10.431c0 0 .119 4.95-4.837 9.944 0 0-3.921 3.058-2.973 10.422l.048.582s-3.407 3.123-6.251 6.396l-.009-.012A48.017 48.017 0 0 1-4.705 48.22c0-26.629 21.594-48.221 48.226-48.221 26.634 0 48.222 21.592 48.222 48.221 0 16.408-8.195 30.898-20.713 39.613h.043l-.001.004z"/></svg>