<svg viewBox="0 0 491 102" xmlns="http://www.w3.org/2000/svg" xmlns:xlink="http://www.w3.org/1999/xlink"><title>TI elevating pittsburgh</title><defs><path id="a" d="M74.19 24.482V48.94H.284V.024H74.19v24.458z"/></defs><g fill="none" fill-rule="evenodd"><g transform="translate(416 53)"><mask id="b" fill="#fff"><use xlink:href="#a"/></mask><path d="M.686 43.077L73.903.18l.287-.156C73.304 27.203 50.994 49 23.59 49 15.15 49 7.281 46.971.284 43.32l.402-.243" fill="#F05329" mask="url(#b)"/></g><path d="M412.348 93.657l11.356-6.729c-4.205-2.372-4.682-6.59-4.682-6.59h-4.873V29.906h-4.364c-.375-9.929 7.166-9.487 7.166-9.487h62.268l.409-.01C470.365 8.488 455.86.764 439.59.764c-27.966 0-50.636 22.662-50.636 50.618 0 17.871 9.158 33.41 23.148 42.417l.246-.142" fill="#F05329"/><path d="M429.212 46.732V35.134c0-1.33-1.369-2.418-3.043-2.418h-4.801c-1.674 0-3.043 1.088-3.043 2.418v11.598h10.887M444.457 46.732V35.134c0-1.33-1.369-2.418-3.043-2.418h-4.801c-1.674 0-3.043 1.088-3.043 2.418v11.598h10.887M459.702 46.732V35.134c0-1.33-1.369-2.418-3.043-2.418h-4.801c-1.674 0-3.043 1.088-3.043 2.418v11.598h10.887M474.947 46.732V35.134c0-1.33-1.369-2.418-3.043-2.418h-4.801c-1.674 0-3.044 1.088-3.044 2.418v11.598h10.888M490.011 46.73a49.76 49.76 0 0 0-3.386-14.008l-.265-.006h-4.012c-1.674 0-3.044 1.088-3.044 2.418v11.598h10.44l.267-.002M440.807 60.2l-.032 16.58 20.353-12.31s-2.494-1.174-3.536-4.27h-16.785M126.034 66.616h12.77V20.123h-12.77zM158.251 43.763v22.853h-12.77V20.123h9.955l18.662 23.64v-23.64h12.769v46.493h-10.15l-18.466-22.853M192.498 34.595a22.797 22.797 0 0 1 4.421-7.4c1.941-2.182 4.299-3.95 7.072-5.303 2.772-1.353 5.926-2.031 9.462-2.031 4.147 0 7.77.928 10.87 2.783 3.1 1.856 5.391 4.312 6.876 7.368l-9.757 6.94c-.393-1.135-.907-2.072-1.539-2.815-.633-.743-1.321-1.332-2.062-1.769a7.85 7.85 0 0 0-2.358-.916 11.239 11.239 0 0 0-2.292-.262c-1.616 0-3.002.36-4.158 1.08a9.348 9.348 0 0 0-2.882 2.816c-.763 1.157-1.32 2.467-1.67 3.93a18.697 18.697 0 0 0-.523 4.354c0 1.615.207 3.165.622 4.649.414 1.485 1.025 2.794 1.834 3.929a9.426 9.426 0 0 0 2.946 2.718c1.157.677 2.478 1.015 3.962 1.015.741 0 1.506-.099 2.292-.295a7.66 7.66 0 0 0 2.259-.983 8.313 8.313 0 0 0 1.965-1.767c.589-.721 1.058-1.605 1.407-2.653l10.412 6.221c-.654 1.703-1.648 3.231-2.979 4.584a18.974 18.974 0 0 1-4.551 3.405 23.36 23.36 0 0 1-5.436 2.095c-1.92.48-3.797.72-5.63.72-3.232 0-6.201-.687-8.907-2.062a22.444 22.444 0 0 1-6.973-5.468c-1.944-2.269-3.461-4.845-4.551-7.726-1.092-2.882-1.638-5.806-1.638-8.776 0-2.837.502-5.63 1.506-8.381zM235.128 66.616V20.123h12.769v35.361h21.086v11.132h-33.855M272.321 66.616h12.769V20.123h-12.769zM304.539 43.763v22.853h-12.77V20.123h9.954l18.662 23.64v-23.64h12.77v46.493h-10.151l-18.465-22.853M372.968 55.484v11.132h-33.135V20.123h32.545v11.133h-19.775v6.548h16.895V48.15h-16.895v7.334h20.365" fill="#F05329"/><path fill="#F37E5E" d="M21.937 66.616h-5.894V25.362H0v-5.239h37.98v5.239H21.937v41.254M79.431 66.616h-5.894V45.465H47.934v21.151H42.04V20.123h5.894v20.103h25.603V20.123h5.894v46.493M119.506 66.616H87.943V20.123h30.973v5.239H93.837v15.061h21.806v4.911H93.837v16.044h25.669v5.238"/><path d="M53.82 87.624V90H42.132V72.96h11.472v2.376H44.82v4.848h7.608v2.232H44.82v5.208h9zm2.972-15.144h2.64v13.896c0 .464.12.828.36 1.092.24.264.576.396 1.008.396.176 0 .38-.032.612-.096.232-.064.452-.136.66-.216l.384 2.064c-.384.176-.84.316-1.368.42a7.41 7.41 0 0 1-1.416.156c-.912 0-1.62-.248-2.124-.744s-.756-1.2-.756-2.112V72.48zM70.18 90.24c-.976 0-1.864-.172-2.664-.516a6.2 6.2 0 0 1-2.052-1.404 6.33 6.33 0 0 1-1.32-2.064 6.688 6.688 0 0 1-.468-2.496c0-.88.156-1.716.468-2.508a6.436 6.436 0 0 1 1.32-2.088 6.113 6.113 0 0 1 2.052-1.416c.8-.344 1.696-.516 2.688-.516.976 0 1.86.176 2.652.528.792.352 1.468.82 2.028 1.404s.988 1.264 1.284 2.04a6.777 6.777 0 0 1 .372 3.396H66.484c.048.56.18 1.064.396 1.512.216.448.496.836.84 1.164a3.682 3.682 0 0 0 2.556 1.02c.352 0 .7-.044 1.044-.132.344-.088.66-.216.948-.384a3.36 3.36 0 0 0 .768-.612c.224-.24.4-.504.528-.792l2.256.648c-.432.944-1.148 1.716-2.148 2.316-1 .6-2.164.9-3.492.9zm3.816-7.464a4.221 4.221 0 0 0-.396-1.464 3.77 3.77 0 0 0-.828-1.14 3.694 3.694 0 0 0-1.176-.732 3.838 3.838 0 0 0-1.416-.264 3.745 3.745 0 0 0-2.568.996 3.608 3.608 0 0 0-.816 1.14 4.393 4.393 0 0 0-.384 1.464h7.584zM82.464 90l-4.8-12.552h2.712l3.6 10.32 3.624-10.32h2.496L85.296 90h-2.832zm13.028.24c-.608 0-1.172-.1-1.692-.3a4.09 4.09 0 0 1-1.344-.828 3.86 3.86 0 0 1-.888-1.248c-.216-.48-.324-1-.324-1.56 0-.592.128-1.128.384-1.608.256-.48.62-.896 1.092-1.248a5.3 5.3 0 0 1 1.68-.816 7.542 7.542 0 0 1 2.148-.288 9.84 9.84 0 0 1 1.752.156 8.823 8.823 0 0 1 1.56.42v-.864c0-.928-.264-1.652-.792-2.172-.528-.52-1.288-.78-2.28-.78-.672 0-1.332.124-1.98.372-.648.248-1.316.604-2.004 1.068l-.816-1.68c1.616-1.088 3.296-1.632 5.04-1.632 1.728 0 3.072.44 4.032 1.32.96.88 1.44 2.144 1.44 3.792v4.536c0 .56.232.848.696.864V90c-.256.048-.476.08-.66.096a6.233 6.233 0 0 1-.54.024c-.512 0-.908-.128-1.188-.384a1.642 1.642 0 0 1-.516-.984l-.072-.792a5.597 5.597 0 0 1-2.076 1.692 6.095 6.095 0 0 1-2.652.588zm.72-1.944c.64 0 1.244-.116 1.812-.348.568-.232 1.012-.556 1.332-.972.336-.288.504-.592.504-.912v-1.656A7.98 7.98 0 0 0 98.432 84a7.88 7.88 0 0 0-1.476-.144c-.944 0-1.716.204-2.316.612-.6.408-.9.948-.9 1.62 0 .624.232 1.148.696 1.572.464.424 1.056.636 1.776.636zm16.868 1.056c-.336.16-.8.34-1.392.54-.592.2-1.224.3-1.896.3-.416 0-.808-.056-1.176-.168a2.88 2.88 0 0 1-.972-.504c-.28-.224-.5-.516-.66-.876-.16-.36-.24-.796-.24-1.308v-7.848h-1.656v-2.04h1.656V73.32h2.64v4.128h2.736v2.04h-2.736v7.008c.032.448.172.772.42.972.248.2.556.3.924.3s.72-.064 1.056-.192c.336-.128.584-.232.744-.312l.552 2.088zm2.324.648V77.448h2.64V90h-2.64zm0-14.616V72.48h2.64v2.904h-2.64zM132.968 90h-2.64v-7.032c0-1.184-.188-2.044-.564-2.58-.376-.536-.932-.804-1.668-.804-.384 0-.768.072-1.152.216a4.034 4.034 0 0 0-1.08.612 4.767 4.767 0 0 0-.9.936c-.264.36-.468.756-.612 1.188V90h-2.64V77.448h2.4v2.52c.48-.848 1.176-1.516 2.088-2.004.912-.488 1.92-.732 3.024-.732.752 0 1.368.136 1.848.408.48.272.86.644 1.14 1.116.28.472.476 1.016.588 1.632.112.616.168 1.268.168 1.956V90zm8.54.12a5.23 5.23 0 0 1-2.328-.516 5.558 5.558 0 0 1-1.812-1.404 6.606 6.606 0 0 1-1.176-2.04 7.021 7.021 0 0 1-.42-2.424c0-.896.144-1.74.432-2.532a6.425 6.425 0 0 1 1.2-2.064 5.728 5.728 0 0 1 1.836-1.392c.712-.344 1.5-.516 2.364-.516 1.008 0 1.892.24 2.652.72a6.096 6.096 0 0 1 1.884 1.872v-2.376h2.328V89.64c0 .912-.168 1.72-.504 2.424a5.115 5.115 0 0 1-1.404 1.788c-.6.488-1.308.86-2.124 1.116a8.775 8.775 0 0 1-2.64.384c-1.392 0-2.548-.236-3.468-.708a6.562 6.562 0 0 1-2.316-1.98l1.488-1.392c.48.672 1.1 1.184 1.86 1.536.76.352 1.572.528 2.436.528.544 0 1.06-.072 1.548-.216a3.582 3.582 0 0 0 1.284-.672c.368-.304.66-.688.876-1.152.216-.464.324-1.016.324-1.656v-1.92a4.591 4.591 0 0 1-1.848 1.776 5.202 5.202 0 0 1-2.472.624zm.864-2.136c.4 0 .784-.068 1.152-.204a4.057 4.057 0 0 0 1.824-1.344 2.87 2.87 0 0 0 .48-.948V82.2a4.45 4.45 0 0 0-1.5-1.944 4.267 4.267 0 0 0-1.044-.564 3.166 3.166 0 0 0-1.104-.204c-.576 0-1.092.124-1.548.372a3.727 3.727 0 0 0-1.164.984 4.84 4.84 0 0 0-1.008 2.964c0 .576.1 1.116.3 1.62a4.063 4.063 0 0 0 2.064 2.22c.472.224.988.336 1.548.336zM169.82 90h-2.64v-7.032c0-1.184-.188-2.044-.564-2.58-.376-.536-.932-.804-1.668-.804-.384 0-.768.072-1.152.216a4.034 4.034 0 0 0-1.08.612 4.767 4.767 0 0 0-.9.936c-.264.36-.468.756-.612 1.188V90h-2.64V77.448h2.4v2.52c.48-.848 1.176-1.516 2.088-2.004.912-.488 1.92-.732 3.024-.732.752 0 1.368.136 1.848.408.48.272.86.644 1.14 1.116.28.472.476 1.016.588 1.632.112.616.168 1.268.168 1.956V90zm9.26.24c-.976 0-1.864-.172-2.664-.516a6.2 6.2 0 0 1-2.052-1.404 6.33 6.33 0 0 1-1.32-2.064 6.688 6.688 0 0 1-.468-2.496c0-.88.156-1.716.468-2.508a6.436 6.436 0 0 1 1.32-2.088 6.113 6.113 0 0 1 2.052-1.416c.8-.344 1.696-.516 2.688-.516.976 0 1.86.176 2.652.528.792.352 1.468.82 2.028 1.404s.988 1.264 1.284 2.04a6.777 6.777 0 0 1 .372 3.396h-10.056c.048.56.18 1.064.396 1.512.216.448.496.836.84 1.164a3.682 3.682 0 0 0 2.556 1.02c.352 0 .7-.044 1.044-.132.344-.088.66-.216.948-.384a3.36 3.36 0 0 0 .768-.612c.224-.24.4-.504.528-.792l2.256.648c-.432.944-1.148 1.716-2.148 2.316-1 .6-2.164.9-3.492.9zm3.816-7.464a4.221 4.221 0 0 0-.396-1.464 3.77 3.77 0 0 0-.828-1.14 3.694 3.694 0 0 0-1.176-.732 3.838 3.838 0 0 0-1.416-.264 3.745 3.745 0 0 0-2.568.996 3.608 3.608 0 0 0-.816 1.14 4.393 4.393 0 0 0-.384 1.464h7.584zm20.588-5.328h2.52L200.724 90h-2.184l-2.328-5.832L193.884 90H191.7l-5.304-12.552h2.52l4.056 10.008 1.824-4.656-2.184-5.328h2.16l1.44 3.936 1.416-3.936h2.16l-2.16 5.328 1.824 4.656 4.032-10.008zm9.02 12.792a9.613 9.613 0 0 1-3.012-.492c-1-.328-1.86-.796-2.58-1.404l1.056-1.68c.752.544 1.496.956 2.232 1.236.736.28 1.488.42 2.256.42.784 0 1.404-.152 1.86-.456.456-.304.684-.736.684-1.296 0-.528-.256-.912-.768-1.152-.512-.24-1.312-.504-2.4-.792a30.192 30.192 0 0 1-2.016-.6c-.56-.192-1.016-.416-1.368-.672-.352-.256-.608-.552-.768-.888-.16-.336-.24-.744-.24-1.224 0-.64.124-1.208.372-1.704a3.657 3.657 0 0 1 1.032-1.26c.44-.344.956-.604 1.548-.78a6.71 6.71 0 0 1 1.92-.264c.944 0 1.824.144 2.64.432a6.87 6.87 0 0 1 2.184 1.248l-1.128 1.584c-1.168-.928-2.408-1.392-3.72-1.392-.672 0-1.236.14-1.692.42-.456.28-.684.724-.684 1.332 0 .256.048.472.144.648.096.176.252.328.468.456.216.128.496.244.84.348.344.104.772.22 1.284.348.848.208 1.58.416 2.196.624.616.208 1.124.452 1.524.732.4.28.696.608.888.984.192.376.288.828.288 1.356 0 1.2-.452 2.148-1.356 2.844-.904.696-2.132 1.044-3.684 1.044zm14.272-.24V77.448h2.64V90h-2.64zm0-14.616V72.48h2.64v2.904h-2.64zM244.34 90h-2.64v-7.032c0-1.184-.188-2.044-.564-2.58-.376-.536-.932-.804-1.668-.804-.384 0-.768.072-1.152.216a4.034 4.034 0 0 0-1.08.612 4.767 4.767 0 0 0-.9.936c-.264.36-.468.756-.612 1.188V90h-2.64V77.448h2.4v2.52c.48-.848 1.176-1.516 2.088-2.004.912-.488 1.92-.732 3.024-.732.752 0 1.368.136 1.848.408.48.272.86.644 1.14 1.116.28.472.476 1.016.588 1.632.112.616.168 1.268.168 1.956V90zm10.336 0V72.96h7.152c.768 0 1.476.16 2.124.48.648.32 1.204.74 1.668 1.26a5.94 5.94 0 0 1 1.092 1.776c.264.664.396 1.34.396 2.028 0 .72-.124 1.412-.372 2.076a5.81 5.81 0 0 1-1.044 1.776c-.448.52-.988.936-1.62 1.248a4.679 4.679 0 0 1-2.1.468h-4.608V90h-2.688zm2.688-8.304h4.44c.384 0 .732-.08 1.044-.24.312-.16.58-.384.804-.672.224-.288.4-.624.528-1.008s.192-.808.192-1.272c0-.48-.072-.912-.216-1.296a3.04 3.04 0 0 0-.6-.996 2.743 2.743 0 0 0-.876-.648 2.4 2.4 0 0 0-1.02-.228h-4.296v6.36zM269.792 90V77.448h2.64V90h-2.64zm0-14.616V72.48h2.64v2.904h-2.64zm13.292 13.968c-.336.16-.8.34-1.392.54-.592.2-1.224.3-1.896.3-.416 0-.808-.056-1.176-.168a2.88 2.88 0 0 1-.972-.504c-.28-.224-.5-.516-.66-.876-.16-.36-.24-.796-.24-1.308v-7.848h-1.656v-2.04h1.656V73.32h2.64v4.128h2.736v2.04h-2.736v7.008c.032.448.172.772.42.972.248.2.556.3.924.3s.72-.064 1.056-.192c.336-.128.584-.232.744-.312l.552 2.088zm9.308 0c-.336.16-.8.34-1.392.54-.592.2-1.224.3-1.896.3-.416 0-.808-.056-1.176-.168a2.88 2.88 0 0 1-.972-.504c-.28-.224-.5-.516-.66-.876-.16-.36-.24-.796-.24-1.308v-7.848H284.4v-2.04h1.656V73.32h2.64v4.128h2.736v2.04h-2.736v7.008c.032.448.172.772.42.972.248.2.556.3.924.3s.72-.064 1.056-.192c.336-.128.584-.232.744-.312l.552 2.088zm6.884.888a9.613 9.613 0 0 1-3.012-.492c-1-.328-1.86-.796-2.58-1.404l1.056-1.68c.752.544 1.496.956 2.232 1.236.736.28 1.488.42 2.256.42.784 0 1.404-.152 1.86-.456.456-.304.684-.736.684-1.296 0-.528-.256-.912-.768-1.152-.512-.24-1.312-.504-2.4-.792a30.192 30.192 0 0 1-2.016-.6c-.56-.192-1.016-.416-1.368-.672-.352-.256-.608-.552-.768-.888-.16-.336-.24-.744-.24-1.224 0-.64.124-1.208.372-1.704a3.657 3.657 0 0 1 1.032-1.26c.44-.344.956-.604 1.548-.78a6.71 6.71 0 0 1 1.92-.264c.944 0 1.824.144 2.64.432a6.87 6.87 0 0 1 2.184 1.248l-1.128 1.584c-1.168-.928-2.408-1.392-3.72-1.392-.672 0-1.236.14-1.692.42-.456.28-.684.724-.684 1.332 0 .256.048.472.144.648.096.176.252.328.468.456.216.128.496.244.84.348.344.104.772.22 1.284.348.848.208 1.58.416 2.196.624.616.208 1.124.452 1.524.732.4.28.696.608.888.984.192.376.288.828.288 1.356 0 1.2-.452 2.148-1.356 2.844-.904.696-2.132 1.044-3.684 1.044zm14.612 0c-.96 0-1.828-.228-2.604-.684a5.05 5.05 0 0 1-1.836-1.836V90h-2.328V72.48h2.64v7.344c.496-.8 1.116-1.432 1.86-1.896.744-.464 1.62-.696 2.628-.696.832 0 1.592.18 2.28.54.688.36 1.276.84 1.764 1.44s.864 1.296 1.128 2.088c.264.792.396 1.62.396 2.484a6.91 6.91 0 0 1-.456 2.52 6.564 6.564 0 0 1-1.248 2.052 5.772 5.772 0 0 1-1.884 1.38 5.516 5.516 0 0 1-2.34.504zm-.696-2.256c.576 0 1.104-.116 1.584-.348.48-.232.892-.54 1.236-.924s.612-.828.804-1.332a4.445 4.445 0 0 0 .288-1.596c0-.56-.092-1.1-.276-1.62a4.392 4.392 0 0 0-.768-1.368 3.865 3.865 0 0 0-1.176-.948 3.17 3.17 0 0 0-1.5-.36c-.816 0-1.54.264-2.172.792a5.273 5.273 0 0 0-1.452 1.92v3.312c.096.368.264.7.504.996.24.296.52.556.84.78.32.224.664.396 1.032.516s.72.18 1.056.18zm13.364 2.256c-1.312 0-2.304-.428-2.976-1.284-.672-.856-1.008-2.132-1.008-3.828v-7.68h2.64V84.6c0 2.256.8 3.384 2.4 3.384.752 0 1.464-.232 2.136-.696.672-.464 1.192-1.136 1.56-2.016v-7.824h2.64v9.432c0 .304.052.52.156.648.104.128.292.2.564.216V90c-.272.048-.496.08-.672.096a5.575 5.575 0 0 1-.504.024c-.48 0-.888-.132-1.224-.396a1.308 1.308 0 0 1-.528-1.02l-.048-1.248c-.56.912-1.288 1.604-2.184 2.076-.896.472-1.88.708-2.952.708zm18.308-10.512c-1.024.032-1.932.268-2.724.708a3.73 3.73 0 0 0-1.692 1.884V90h-2.64V77.448h2.448v2.808c.432-.864.996-1.556 1.692-2.076s1.444-.804 2.244-.852h.396c.104 0 .196.008.276.024v2.376zm6.764 10.392a5.23 5.23 0 0 1-2.328-.516 5.558 5.558 0 0 1-1.812-1.404 6.606 6.606 0 0 1-1.176-2.04 7.021 7.021 0 0 1-.42-2.424c0-.896.144-1.74.432-2.532a6.425 6.425 0 0 1 1.2-2.064 5.728 5.728 0 0 1 1.836-1.392c.712-.344 1.5-.516 2.364-.516 1.008 0 1.892.24 2.652.72a6.096 6.096 0 0 1 1.884 1.872v-2.376h2.328V89.64c0 .912-.168 1.72-.504 2.424a5.115 5.115 0 0 1-1.404 1.788c-.6.488-1.308.86-2.124 1.116a8.775 8.775 0 0 1-2.64.384c-1.392 0-2.548-.236-3.468-.708a6.562 6.562 0 0 1-2.316-1.98l1.488-1.392c.48.672 1.1 1.184 1.86 1.536.76.352 1.572.528 2.436.528.544 0 1.06-.072 1.548-.216a3.582 3.582 0 0 0 1.284-.672c.368-.304.66-.688.876-1.152.216-.464.324-1.016.324-1.656v-1.92a4.591 4.591 0 0 1-1.848 1.776 5.202 5.202 0 0 1-2.472.624zm.864-2.136c.4 0 .784-.068 1.152-.204a4.057 4.057 0 0 0 1.824-1.344 2.87 2.87 0 0 0 .48-.948V82.2a4.45 4.45 0 0 0-1.5-1.944 4.267 4.267 0 0 0-1.044-.564 3.166 3.166 0 0 0-1.104-.204c-.576 0-1.092.124-1.548.372a3.727 3.727 0 0 0-1.164.984 4.84 4.84 0 0 0-1.008 2.964c0 .576.1 1.116.3 1.62a4.063 4.063 0 0 0 2.064 2.22c.472.224.988.336 1.548.336zM373.512 90h-2.64v-7.032c0-1.152-.204-2.004-.612-2.556-.408-.552-.996-.828-1.764-.828a3.01 3.01 0 0 0-1.104.216 3.967 3.967 0 0 0-1.044.612c-.328.264-.62.576-.876.936-.256.36-.448.756-.576 1.188V90h-2.64V72.48h2.64v7.488a5.21 5.21 0 0 1 1.956-2.016 5.27 5.27 0 0 1 2.7-.72c.784 0 1.428.14 1.932.42.504.28.908.652 1.212 1.116a4.49 4.49 0 0 1 .636 1.62c.12.616.18 1.268.18 1.956V90z" fill="#DE4F2F"/></g></svg>