<svg xmlns="http://www.w3.org/2000/svg" width="279.132" height="36.784" viewBox="0 0 279.132 36.784"><g fill="#5F6062"><path d="M54.378 29.912v-2.246c.466-.108.958-.191 1.369-.246l-5.531-6.626v6.544c.575.054 1.232.163 1.807.328v2.246h-7.749v-2.219c.712-.164 1.56-.302 2.382-.355V14.002a15.599 15.599 0 0 1-2.382-.355v-2.218h7.749v2.245a10.41 10.41 0 0 1-1.807.329v6.134l5.476-6.216c-.438-.028-1.013-.11-1.424-.247v-2.245h7.502v2.245c-.548.11-1.205.219-1.698.274l-5.859 6.353 6.243 7.091c.521.056 1.177.166 1.725.274v2.246h-7.803zM73.847 29.912v-8.708c0-1.396-.383-2.245-1.67-2.245-1.78 0-3.176 1.999-3.176 4.381v3.998c.657.054 1.396.163 1.999.328v2.246h-7.886v-2.219a15.373 15.373 0 0 1 2.382-.355v-8.352a27.62 27.62 0 0 0-2.382-.274v-2.19c1.752-.219 3.861-.301 5.695-.246 0 .63-.055 1.726-.191 2.465h.027c.822-1.588 2.41-2.711 4.628-2.711 3.066 0 4.053 1.945 4.053 4.327v6.982c.794.054 1.588.191 2.218.355v2.219h-5.697zM80.282 29.912v-2.219a15.373 15.373 0 0 1 2.382-.355v-8.352a27.62 27.62 0 0 0-2.382-.274v-2.19c1.752-.219 3.861-.301 5.887-.246v11.062a13.36 13.36 0 0 1 2.218.355v2.219h-8.105zm4.135-15.636c-1.177 0-2.163-.931-2.163-2.108 0-1.178.986-2.136 2.163-2.136 1.205 0 2.19.931 2.19 2.136 0 1.15-.985 2.108-2.19 2.108zM95.233 36.784c-3.615 0-5.832-1.396-5.832-4.053 0-1.424.985-2.737 2.108-3.341-.821-.383-1.341-1.15-1.341-2.081 0-1.067.684-2.026 1.615-2.436-1.259-.686-2.026-1.945-2.026-3.725 0-2.739 2.026-5.148 5.997-5.148.876 0 1.479.11 2.218.301h4.628v2.738h-1.862c.438.41.685 1.013.685 1.726 0 2.902-1.944 4.901-5.832 4.901-.384 0-.685-.027-1.068-.109-.438.191-.657.547-.657.875 0 .631.52.795 2.108.85l2.108.082c2.93.109 4.627 1.368 4.627 3.998-.001 2.93-2.958 5.422-7.476 5.422zm1.861-6.709l-2.354-.081h-.63c-.794.575-1.26 1.313-1.26 2.08 0 1.261 1.15 2.027 2.902 2.027 2.273 0 3.478-.987 3.478-2.273 0-.986-.629-1.697-2.136-1.753zm-1.478-11.527c-1.588 0-2.52 1.013-2.52 2.382 0 1.452.876 2.354 2.52 2.354 1.533 0 2.464-.875 2.464-2.326s-.849-2.41-2.464-2.41zM114.018 29.912v-8.708c0-1.396-.384-2.245-1.67-2.245-1.78 0-3.176 1.999-3.176 4.408v3.971c.685.054 1.396.163 1.999.328v2.246h-7.694v-2.219a13.26 13.26 0 0 1 2.217-.355V12.606a27.813 27.813 0 0 0-2.3-.273v-2.19c1.697-.219 3.778-.302 5.777-.247v5.888c0 .82-.055 1.943-.219 2.765h.027c.795-1.506 2.355-2.519 4.491-2.519 3.067 0 4.052 1.945 4.052 4.327v6.982a14.03 14.03 0 0 1 2.191.355v2.219h-5.695zM126.257 30.185c-3.012 0-3.943-1.094-3.943-4.271v-6.9h-2.355v-2.711h2.355v-4.189l3.478-.931v5.121h3.313v2.711h-3.313v5.97c0 1.751.41 2.245 1.615 2.245.576 0 1.096-.055 1.561-.191l.247 2.765c-.877.217-2 .381-2.958.381zM146.027 16.166c-.109-.63-.219-1.232-.273-1.89h-3.697v5.093h3.095c.054-.52.164-1.04.301-1.506h2.272v5.723h-2.272a8.094 8.094 0 0 1-.301-1.506h-3.095v5.258c.822.054 1.671.191 2.382.355v2.219h-8.323v-2.219a15.354 15.354 0 0 1 2.382-.355V14.002a15.599 15.599 0 0 1-2.382-.355v-2.218h12.568v4.737h-2.657zM156.542 30.185c-3.86 0-6.353-1.999-6.353-6.79 0-4.3 2.821-7.366 6.954-7.366 3.862 0 6.354 2.109 6.354 6.792 0 4.297-2.848 7.364-6.955 7.364zm.356-11.199c-1.589 0-3.095 1.205-3.095 4.08 0 2.71.986 4.134 3.039 4.134 1.726 0 3.04-1.396 3.04-4.08 0-2.71-.985-4.134-2.984-4.134zM175.27 29.939c0-.685.056-1.699.165-2.465h-.055c-.794 1.588-2.383 2.71-4.601 2.71-3.094 0-4.08-1.944-4.08-4.326v-6.872a26.883 26.883 0 0 0-2.19-.274v-2.218c1.589-.191 3.67-.273 5.695-.219v8.735c0 1.396.384 2.245 1.671 2.245 1.779 0 3.177-1.999 3.177-4.381v-3.916c-.576-.082-1.315-.191-1.999-.247v-2.245a43.798 43.798 0 0 1 5.476-.191v10.953c.657.109 1.507.219 2.218.272v2.219c-1.587.193-3.696.275-5.477.22zM192.249 29.912v-8.708c0-1.396-.385-2.245-1.671-2.245-1.78 0-3.177 1.999-3.177 4.381v3.998c.657.054 1.396.163 1.998.328v2.246h-7.885v-2.219a15.373 15.373 0 0 1 2.382-.355v-8.352a27.62 27.62 0 0 0-2.382-.274v-2.19c1.753-.219 3.861-.301 5.694-.246 0 .63-.054 1.726-.191 2.465h.028c.82-1.588 2.409-2.711 4.628-2.711 3.065 0 4.052 1.945 4.052 4.327v6.982c.794.054 1.588.191 2.218.355v2.219h-5.694zM208.102 29.939c0-.685.055-1.562.164-2.301h-.055c-.712 1.507-2.218 2.574-4.299 2.574-3.313 0-4.956-2.491-4.956-6.38 0-4.601 2.683-7.777 7.201-7.777.575 0 1.122.028 1.726.11v-3.56a27.273 27.273 0 0 0-2.383-.273v-2.19c1.726-.219 3.86-.302 5.859-.247v17.333c.658.109 1.562.219 2.246.272v2.191c-1.587.221-3.695.303-5.503.248zm-.219-10.898a8.536 8.536 0 0 0-1.835-.219c-1.999 0-3.423 1.26-3.423 4.627 0 2.547.739 3.86 2.328 3.86 1.834 0 2.93-2.135 2.93-4.462v-3.806zM222.751 29.939c0-.794 0-1.616.11-2.328l-.028-.027c-.657 1.533-2.327 2.601-4.353 2.601-2.438 0-3.889-1.505-3.889-3.695 0-3.259 3.231-4.792 7.858-4.847v-.794c0-1.452-.575-2.273-2.41-2.273-.657 0-1.424.137-1.999.328a15.5 15.5 0 0 1-.273 1.781h-2.19v-3.972a16.465 16.465 0 0 1 4.71-.711c4.463 0 5.695 1.752 5.695 4.738v6.489c.657.109 1.506.219 2.218.272v2.219c-1.587.192-3.696.274-5.449.219zm-.3-6.051c-3.121 0-4.518.685-4.518 2.08 0 .904.63 1.562 1.643 1.562 1.725 0 2.875-1.615 2.875-3.286v-.356zM234.718 30.185c-3.013 0-3.943-1.094-3.943-4.271v-6.9h-2.354v-2.711h2.354v-4.189l3.478-.931v5.121h3.313v2.711h-3.313v5.97c0 1.751.41 2.245 1.616 2.245.574 0 1.095-.055 1.56-.191l.247 2.765c-.878.217-2 .381-2.958.381zM238.935 29.912v-2.219a15.368 15.368 0 0 1 2.383-.355v-8.352a27.69 27.69 0 0 0-2.383-.274v-2.19c1.752-.219 3.86-.301 5.887-.246v11.062c.767.054 1.562.191 2.219.355v2.219h-8.106zm4.135-15.636c-1.178 0-2.163-.931-2.163-2.108 0-1.178.985-2.136 2.163-2.136 1.205 0 2.189.931 2.189 2.136 0 1.15-.984 2.108-2.189 2.108zM254.406 30.185c-3.86 0-6.353-1.999-6.353-6.79 0-4.3 2.82-7.366 6.954-7.366 3.862 0 6.354 2.109 6.354 6.792.001 4.297-2.848 7.364-6.955 7.364zm.356-11.199c-1.589 0-3.095 1.205-3.095 4.08 0 2.71.986 4.134 3.039 4.134 1.726 0 3.04-1.396 3.04-4.08.001-2.71-.985-4.134-2.984-4.134zM273.436 29.912v-8.708c0-1.396-.384-2.245-1.67-2.245-1.78 0-3.176 1.999-3.176 4.381v3.998c.657.054 1.396.163 1.998.328v2.246h-7.885v-2.219c.711-.164 1.56-.302 2.382-.355v-8.352a27.666 27.666 0 0 0-2.382-.274v-2.19c1.751-.219 3.859-.301 5.694-.246 0 .63-.054 1.726-.191 2.465h.027c.821-1.588 2.409-2.711 4.627-2.711 3.067 0 4.054 1.945 4.054 4.327v6.982c.793.054 1.587.191 2.218.355v2.219h-5.696z"/></g><g fill="#00467F"><path d="M0 0h9.352L0 14.25l9.352 15.547H0z"/><path d="M17.253 0h16.786v6.108H17.253v5.245h16.786v6.095H17.253v12.349L7.247 14.25z"/></g></svg>