<?xml version="1.0" encoding="utf-8"?>
<!-- Generator: Adobe Illustrator 16.0.0, SVG Export Plug-In . SVG Version: 6.00 Build 0)  -->
<!DOCTYPE svg PUBLIC "-//W3C//DTD SVG 1.1//EN" "http://www.w3.org/Graphics/SVG/1.1/DTD/svg11.dtd">
<svg version="1.1" id="Layer_1" xmlns="http://www.w3.org/2000/svg" xmlns:xlink="http://www.w3.org/1999/xlink" x="0px" y="0px"
	 width="300px" height="79.644px" viewBox="0 0 300 79.644" enable-background="new 0 0 300 79.644" xml:space="preserve">
<g>
	<path fill="#231F20" d="M35.924,79.204h-2.831V62.518h4.425c3.876,0,5.8,1.732,5.8,5.168c0,3.519-1.787,5.278-5.333,5.278h-2.062
		V79.204z M35.924,70.71h1.402c2.062,0,3.106-1.017,3.106-3.024c0-1.952-1.072-2.914-3.189-2.914h-1.319V70.71z M54.481,64.91v4.343
		h5.607v2.392h-5.607v5.167h5.8v2.392h-8.631V62.518h8.631v2.392H54.481z M69.326,62.078h2.144l9.429,12.562l0.055-12.123h2.804
		v17.016h-2.117l-9.456-12.535l-0.028,12.205h-2.831V62.078z M92.996,62.078h2.144l9.429,12.562l0.055-12.123h2.804v17.016h-2.117
		l-9.456-12.535l-0.027,12.205h-2.832V62.078z M124.747,65.899c-0.715-1.017-1.622-1.512-2.722-1.512
		c-0.687,0-1.292,0.22-1.759,0.632c-0.467,0.413-0.715,0.99-0.715,1.677c0,0.715,0.88,1.567,2.612,2.529
		c1.731,0.962,2.584,1.457,2.611,1.457c1.237,0.907,1.842,2.007,1.842,3.244c0,1.705-0.495,3.079-1.457,4.124
		c-0.99,1.072-2.336,1.594-4.041,1.594c-2.171,0-3.876-1.072-5.113-3.244l1.787-1.759c0.248,0.632,0.688,1.237,1.32,1.759
		s1.292,0.797,1.979,0.797c0.797,0,1.457-0.275,1.924-0.825s0.687-1.209,0.687-2.007c0-0.577-0.165-1.072-0.522-1.512
		c-0.357-0.413-1.512-1.072-3.519-1.979c-2.007-0.879-3.024-2.144-3.024-3.793c0-1.402,0.467-2.611,1.402-3.573
		c0.907-0.962,2.062-1.43,3.463-1.43c1.924,0,3.437,0.632,4.563,1.87L124.747,65.899z M133.765,62.518h3.354l3.216,6.24l3.491-6.24
		h3.354l-5.333,9.099v7.587h-2.831v-7.587L133.765,62.518z M157.874,76.812h5.03v2.392h-7.862V62.518h2.832V76.812z M176.843,74.998
		l4.123-12.48h3.134l-6.487,17.125h-1.896l-6.377-17.125h3.051L176.843,74.998z M194.932,75.465l-1.484,3.738h-2.996l6.487-17.125
		h2.529l6.322,17.125h-3.023l-1.402-3.738H194.932z M198.039,66.174l-2.419,7.064h4.975L198.039,66.174z M213.681,62.078h2.144
		l9.429,12.562l0.055-12.123h2.804v17.016h-2.117l-9.456-12.535l-0.028,12.205h-2.831V62.078z M240.401,79.204h-2.831V62.518h2.831
		V79.204z M252.938,75.465l-1.484,3.738h-2.997l6.487-17.125h2.529l6.322,17.125h-3.024l-1.402-3.738H252.938z M256.043,66.174
		l-2.419,7.064h4.976L256.043,66.174z"/>
	<path fill="#136DB6" d="M61.09,8.852l3.764-7.392C62.287,0.505,59.505,0,56.483,0c-7.024,0-12.845,2.54-17.464,7.618
		C34.4,12.697,32.09,18.815,32.09,25.973c0,7.159,2.295,13.25,6.888,18.274c4.591,5.024,10.426,7.537,17.504,7.537
		c7.077,0,12.897-2.525,17.463-7.577c4.565-5.051,6.848-11.143,6.848-18.274c0-6.301-1.842-11.778-5.43-16.475l-4.469,8.785
		c0.85,2.179,1.309,4.568,1.309,7.204c0,5.133-1.432,9.44-4.295,12.925c-2.864,3.484-6.673,5.227-11.426,5.227
		c-4.43,0-8.159-1.823-11.184-5.47c-3.026-3.647-4.538-7.873-4.538-12.682c0-4.808,1.418-8.887,4.254-12.237
		c2.836-3.349,6.645-5.024,11.426-5.024C58.12,8.185,59.66,8.422,61.09,8.852"/>
	<path fill="#136DB6" d="M8.347,7.942h3.89c6.266,0,9.4,2.864,9.4,8.59c0,5.944-3.053,8.915-9.157,8.915H8.347 M8.347,32.091h6.078
		c10.48,0,15.721-5.187,15.721-15.56c0-10.156-5.7-15.235-17.099-15.235H0v49.19h8.347V32.091z"/>
	<path fill="#136DB6" d="M156.724,50.487h8.347V1.297h-8.347V50.487z M141.652,8.347h10.94v-7.05h-29.417v7.05h10.94v42.14h7.537
		V8.347z M110.777,50.487h8.347V1.297h-8.347V50.487z M92.22,1.297h-8.348v49.19h23.177v-7.05H92.22V1.297z"/>
	<path fill="#E35130" d="M289.06,8.347H300v-7.05h-29.417v7.05h10.94v42.14h7.537 M267.748,2.836C264.073,0.946,260.427,0,256.807,0
		c-6.916,0-12.696,2.567-17.342,7.699c-4.646,5.133-6.969,11.319-6.969,18.558c0,6.969,2.323,12.966,6.969,17.99
		c4.646,5.025,10.374,7.537,17.181,7.537c3.403,0,7.103-0.972,11.102-2.917V38.737c-2.972,3.458-6.592,5.186-10.859,5.186
		c-4.485,0-8.225-1.823-11.224-5.47c-2.998-3.646-4.498-7.766-4.498-12.358c0-4.753,1.512-8.982,4.539-12.683
		c3.024-3.699,6.779-5.55,11.264-5.55c4.322,0,7.914,1.729,10.778,5.186V2.836z M220.765,32.902h-14.668l7.132-20.827
		L220.765,32.902z M223.034,39.466l4.133,11.021h8.914L217.919,1.29H209.5l-18.639,49.198h8.833l4.376-11.021H223.034z
		 M195.644,8.347v-7.05H171.17v49.19h8.347V28.201h15.154v-7.05h-15.154V8.347H195.644z"/>
	<rect x="0.038" y="0" fill="none" width="299.962" height="51.783"/>
	<polyline fill="#F5C925" points="69.703,0.021 55.745,27.44 51.575,21.186 44.958,21.186 56.442,39.408 76.479,0.021 	"/>
</g>
</svg>
