<svg xmlns="http://www.w3.org/2000/svg" viewBox="0 0 300 300"><path fill="#DCDBDB" d="M295 150.001c0 80.078-64.921 144.998-144.998 144.998-80.082 0-145.001-64.92-145.001-144.998 0-80.082 64.919-145 145.001-145 80.077 0 144.998 64.918 144.998 145z"/><path fill="#F3F3F3" d="M232.853 269.119c-21.841-34.568-46.457-50.781-46.457-50.781l-1.461-1.489c-4.594-3.695-3.647-7.938-3.647-7.938 2.033-7.958 7.729-8.828 7.729-8.828 9.509-.402 11.406-3.835 11.406-3.835 3.364-6.044.135-13.174.135-13.174.599-2.368 4.101-5.091 4.101-5.091.587-3.825-.517-5.736-.517-5.736 2.341-2.082 3.436-4.039 3.436-4.039-.592-5.026.721-8.77.721-8.77 1.163-1.469 6.437-1.469 6.437-1.469 5.84-2.946 2.029-9.139 2.029-9.139-2.925-5.001-5.546-12.062-5.546-12.062-2.726-6.947 5.546-17.972 5.546-17.972s37.109 12.378 48.776.897c0 0 9.357-11.197-13.712-27.39 0 0-15.492-11.789-46.446-13.543 0 0-2.911-19.435-4.082-25.908 0 0-3.797-13.837-23.375-18.554 0 0-19.859-7.067-44.688-2.346 0 0-18.102 1.73-25.995 14.113 0 0-3.784 7.656-4.678 20.023 0 0-39.419 7.366-59.866 30.345 0 0-31.555 33.261 42.643 32.688l4.23-.314s-9.789 10.756-9.188 31.37c0 0 .357 14.878-14.544 29.894 0 0-11.79 9.187-8.942 31.339l.144 1.755s-10.25 9.4-18.798 19.229l-.022-.021C17.459 217.289 5 185.093 5 149.986 5 69.917 69.921 5.001 150.007 5.001 230.092 5.001 295 69.917 295 149.986c0 49.336-24.639 92.919-62.28 119.133h.133z"/></svg>