<?xml version="1.0" encoding="utf-8"?>
<!-- Generator: Adobe Illustrator 16.0.4, SVG Export Plug-In . SVG Version: 6.00 Build 0)  -->
<!DOCTYPE svg PUBLIC "-//W3C//DTD SVG 1.1//EN" "http://www.w3.org/Graphics/SVG/1.1/DTD/svg11.dtd">
<svg version="1.1" id="Layer_1" xmlns="http://www.w3.org/2000/svg" xmlns:xlink="http://www.w3.org/1999/xlink" x="0px" y="0px"
	 width="279.13px" height="103.106px" viewBox="-0.53 0.474 279.13 103.106" enable-background="new -0.53 0.474 279.13 103.106"
	 xml:space="preserve">
<g>
	<g>
		<path fill="#003DA6" d="M70.289,2.62v17.244h23.012v39.04l15.302-0.015l-1.676,4.791c-1.706,4.894-3.764,9.233-6.132,12.946
			l12.726,13.652h0.84l0.026-70.415h23.999l0.041-17.244H70.289z"/>
		<path fill="#003DA6" d="M49.182,75.102c0-7.28,3.906-11.949,8.782-15.631c-3.789-4.076-5.708-7.624-5.708-12.752
			c0-2.108,0.432-4.221,1.314-6.194c-3.189-1.562-6.826-2.931-10.886-4.209C28.798,32.027,25.455,29.754,25.455,24.2
			c0-5.552,4.629-8.581,11.957-8.581c7.2,0,13.372,2.397,19.413,7.319l9.9-11.233C58.882,4.386,49.496,0.474,35.869,0.474
			c-18.512,0-32.141,9.844-32.141,25.241c0,13,7.329,21.078,27.256,27.135c12.984,3.911,16.328,6.815,16.328,13.253
			c0,6.687-5.4,10.726-14.143,10.726c-8.871,0-16.071-3.153-22.369-8.708L0,79.732c7.329,6.939,18.384,12.494,33.812,12.494
			c8.328,0,15.375-1.595,20.935-4.441C51.199,84.608,49.182,80.251,49.182,75.102z"/>
	</g>
	<g>
		<path fill="#003DA6" d="M89.336,46.255c0,6.499-4.333,10.673-10.4,14.618l10.637,9.82c1.497-3.094,2.757-4.121,3.782-8.449h10.499
			c-2.049,5.878-4.591,10.925-7.349,14.714l12.496,13.32H95.531l-6.273-5.975c-4.964,3.945-10.637,5.802-17.256,5.802
			c-11.66,0-19.461-5.955-19.461-15.004c0-6.417,3.547-10.596,10.637-15.157c-5.436-5.183-7.564-8.276-7.564-13.226
			c0-6.65,5.438-12.838,16.861-12.838C83.111,33.881,89.336,39.218,89.336,46.255z M70.269,66.519
			c-3.232,2.318-4.728,4.794-4.728,7.888c0,4.252,3.388,7.036,8.587,7.036c3.467,0,6.304-1.005,8.904-2.938L70.269,66.519z
			 M67.589,46.719c0,2.708,1.182,4.486,4.492,7.736c3.625-2.321,5.357-4.641,5.357-7.89c0-2.938-1.812-4.795-4.807-4.795
			C69.481,41.771,67.589,43.782,67.589,46.719z"/>
	</g>
	<path fill="#003DA6" d="M163.449,74.035c0,11.731-9.077,15.745-21.929,15.745h-15.261V34.438h13.093
		c13.654,0,21.685,4.337,21.685,13.975c0,6.826-4.979,11.008-10.361,12.132C157.102,61.666,163.449,64.64,163.449,74.035z
		 M133.89,57.893h8.352c6.187,0,11.005-3.054,11.005-8.917c0-6.828-4.897-8.514-13.092-8.514h-6.265V57.893z M141.52,83.674
		c8.032,0,13.896-1.606,13.896-9.64c0-7.788-5.782-10.277-12.449-10.277h-9.077v19.917H141.52z"/>
	<path fill="#003DA6" d="M199.5,79.499c0,3.696,1.367,4.899,3.534,5.703l-1.687,5.14c-4.257-0.482-6.989-2.168-8.275-6.344
		c-2.969,4.417-7.468,6.344-12.607,6.344c-8.435,0-13.495-5.22-13.495-12.77c0-9.077,6.827-13.977,18.635-13.977h6.507v-3.134
		c0-6.103-2.975-8.354-8.837-8.354c-3.131,0-7.066,0.804-11.406,2.251l-1.845-5.383c5.22-1.929,9.878-2.893,14.616-2.893
		c10.201,0,14.86,5.223,14.86,14.058V79.499z M192.111,78.213v-9.719h-5.544c-7.792,0-11.728,2.893-11.728,8.674
		c0,4.981,2.491,7.633,7.311,7.633C186.487,84.801,189.7,82.632,192.111,78.213z"/>
	<path fill="#003DA6" d="M238.296,59.017v30.362h-7.393v-29.32c0-6.344-2.568-8.192-6.666-8.192c-4.74,0-7.953,2.973-10.764,7.471
		v30.042h-7.39V47.047h6.344l0.644,6.268c2.894-4.339,7.39-7.231,12.935-7.231C233.797,46.083,238.296,50.983,238.296,59.017z"/>
	<path fill="#003DA6" d="M244.575,89.379V35.305l7.392-1.214v55.288H244.575z M278.071,89.379h-8.837l-16.787-23.136l15.583-19.196
		h8.272l-15.583,18.717L278.071,89.379z"/>
</g>
<g>
	<path fill="#003DA6" d="M201.108,103.401l-0.216-3.485c-0.072-1.229-0.132-2.521-0.109-3.4l-1.519,5.98h-1.506l-1.618-5.992
		c0.05,1.121,0.025,2.269-0.047,3.46l-0.204,3.438h-1.543l0.663-8.33h2.05l1.482,5.832l1.398-5.832h2.073l0.649,8.33H201.108z"/>
	<path fill="#003DA6" d="M205.805,96.251v2.324h2.677v1.184h-2.677v2.447h3.293v1.194h-4.884v-8.33h4.835l-0.169,1.181H205.805z"/>
	<path fill="#003DA6" d="M217.122,103.401l-0.216-3.485c-0.072-1.229-0.132-2.521-0.108-3.4l-1.519,5.98h-1.506l-1.617-5.992
		c0.049,1.121,0.024,2.269-0.048,3.46l-0.204,3.438h-1.543l0.663-8.33h2.049l1.483,5.832l1.397-5.832h2.073l0.65,8.33H217.122z"/>
	<path fill="#003DA6" d="M225.921,101c0,1.834-1.459,2.401-3.486,2.401h-2.506v-8.33h2.182c2.146,0,3.448,0.602,3.448,2.12
		c0,1.039-0.748,1.626-1.544,1.797C224.967,99.169,225.921,99.615,225.921,101z M221.519,98.494h0.978
		c0.868,0,1.435-0.386,1.435-1.17c0-0.846-0.579-1.084-1.663-1.084h-0.749V98.494z M222.448,102.207
		c1.049,0,1.809-0.219,1.809-1.267c0-0.999-0.711-1.337-1.641-1.337h-1.097v2.604H222.448z"/>
	<path fill="#003DA6" d="M228.787,96.251v2.324h2.676v1.184h-2.676v2.447h3.291v1.194h-4.884v-8.33h4.835l-0.169,1.181H228.787z"/>
	<path fill="#003DA6" d="M235.05,100.06v3.341h-1.591v-8.33h2.483c2.184,0,3.303,0.794,3.303,2.446c0,1.133-0.555,1.808-1.686,2.254
		l2.181,3.63h-1.832l-1.845-3.341H235.05z M236.039,98.914c0.99,0,1.544-0.397,1.544-1.396c0-0.905-0.518-1.289-1.675-1.289h-0.857
		v2.686H236.039z"/>
	<path fill="#003DA6" d="M245.306,96.251v2.494h2.568v1.182h-2.568v3.474h-1.59v-8.33h4.713l-0.169,1.181H245.306z"/>
	<path fill="#003DA6" d="M251.536,95.071c2.193,0,4.27,0.675,4.27,4.121c0,3.375-2.063,4.209-4.054,4.209h-2.265v-8.33H251.536z
		 M251.078,102.207h0.783c1.242,0,2.269-0.557,2.269-3.015c0-2.507-1.086-2.93-2.315-2.93h-0.736V102.207z"/>
	<path fill="#003DA6" d="M257.173,103.401v-8.33h1.604v8.33H257.173z"/>
	<path fill="#003DA6" d="M266.226,95.769l-0.818,0.95c-0.472-0.395-0.964-0.602-1.543-0.602c-1.146,0-2.039,0.846-2.039,3.1
		c0,2.194,0.868,3.085,2.063,3.085c0.709,0,1.204-0.338,1.686-0.698l0.749,0.963c-0.508,0.52-1.375,1.013-2.509,1.013
		c-2.157,0-3.663-1.529-3.663-4.362c0-2.799,1.59-4.328,3.616-4.328C264.865,94.889,265.552,95.201,266.226,95.769z"/>
</g>
</svg>
