<svg xmlns="http://www.w3.org/2000/svg" viewBox="0 0 128 128"><path fill="#C2C2C1" d="M0 0h128v128H0z"/><path fill="#FFF" d="M44.643 101.803l61.929-36.282.24-.13c-.751 22.984-19.62 41.422-42.796 41.422-7.139 0-13.796-1.718-19.713-4.804l.34-.206zm-3.668-2.045l9.604-5.693c-3.556-2.005-3.96-5.573-3.96-5.573h-4.121V45.836h-3.691c-.317-8.396 6.06-8.025 6.06-8.025h52.67l.344-.008c-7.835-10.081-20.102-16.616-33.863-16.616-23.653 0-42.828 19.167-42.828 42.811 0 15.118 7.747 28.262 19.578 35.878l.207-.118z"/><path fill="#FFF" d="M55.238 60.066v-9.81c0-1.125-1.157-2.044-2.574-2.044h-4.06c-1.416 0-2.574.919-2.574 2.044v9.81h9.208zm12.894 0v-9.81c0-1.125-1.158-2.044-2.574-2.044h-4.06c-1.416 0-2.573.919-2.573 2.044v9.81h9.207zm12.893 0v-9.81c0-1.125-1.157-2.044-2.571-2.044h-4.062c-1.415 0-2.573.919-2.573 2.044v9.81h9.206zm12.896 0v-9.81c0-1.125-1.157-2.044-2.573-2.044h-4.062c-1.416 0-2.572.919-2.572 2.044v9.81h9.207zm12.74-.001a42.008 42.008 0 0 0-2.863-11.849l-.225-.004h-3.395c-1.415 0-2.572.919-2.572 2.044v9.81h8.831l.224-.001zM65.043 71.459l-.025 14.023 17.215-10.414s-2.11-.993-2.993-3.612l-14.197.003z"/></svg>