<svg xmlns="http://www.w3.org/2000/svg" viewBox="0 0 128 128"><path fill="#C2C2C1" d="M0 0h128v128H0z"/><path fill="#FFF" d="M88.73 102.713c-6.436-10.187-13.693-14.966-13.693-14.966l-.431-.439c-1.351-1.088-1.075-2.34-1.075-2.34.604-2.344 2.282-2.602 2.282-2.602 2.799-.122 3.358-1.13 3.358-1.13.994-1.782.041-3.887.041-3.887.177-.696 1.209-1.497 1.209-1.497.173-1.128-.153-1.69-.153-1.69.69-.615 1.011-1.193 1.011-1.193-.171-1.479.216-2.582.216-2.582.344-.436 1.896-.436 1.896-.436 1.724-.869.6-2.69.6-2.69-.863-1.475-1.635-3.558-1.635-3.558-.804-2.046 1.635-5.297 1.635-5.297s10.938 3.648 14.379.265c0 0 2.755-3.3-4.042-8.074 0 0-4.567-3.475-13.69-3.992 0 0-.859-5.729-1.203-7.634 0 0-1.119-4.08-6.891-5.47 0 0-5.855-2.082-13.172-.691 0 0-5.335.511-7.663 4.161 0 0-1.116 2.255-1.379 5.902 0 0-11.617 2.169-17.644 8.942 0 0-9.302 9.801 12.567 9.634l1.247-.092s-2.883 3.171-2.706 9.246c0 0 .104 4.382-4.288 8.81 0 0-3.475 2.709-2.636 9.238l.042.516s-3.022 2.771-5.541 5.668l-.006-.004a42.571 42.571 0 0 1-9.792-27.233c0-23.599 19.134-42.734 42.739-42.734 23.606 0 42.737 19.136 42.737 42.734 0 14.543-7.26 27.387-18.357 35.114h.038z"/></svg>