<svg xmlns="http://www.w3.org/2000/svg" viewBox="-1.775 -6.081 100 100"><path fill="#F05529" d="M26.274 86.786l70.224-41.143.272-.148c-.85 26.064-22.248 46.971-48.528 46.971-8.095 0-15.644-1.947-22.354-5.447l.386-.233zm-4.159-2.32l10.891-6.455c-4.032-2.275-4.49-6.32-4.49-6.32h-4.674V23.323h-4.186c-.359-9.522 6.871-9.1 6.871-9.1h59.725l.392-.009C77.758 2.782 63.849-4.628 48.243-4.628 21.422-4.628-.321 17.107-.321 43.918c0 17.142 8.784 32.046 22.2 40.683l.236-.135z"/><path fill="#F05529" d="M38.289 39.458V28.335c0-1.276-1.312-2.319-2.919-2.319h-4.604c-1.605 0-2.919 1.042-2.919 2.319v11.123h10.442zm14.62 0V28.335c0-1.276-1.312-2.319-2.918-2.319h-4.604c-1.606 0-2.919 1.042-2.919 2.319v11.123h10.441zm14.621 0V28.335c0-1.276-1.311-2.319-2.916-2.319h-4.605c-1.604 0-2.918 1.042-2.918 2.319v11.123H67.53zm14.623 0V28.335c0-1.276-1.312-2.319-2.918-2.319H74.63c-1.605 0-2.918 1.042-2.918 2.319v11.123h10.441zm14.448 0a47.704 47.704 0 0 0-3.246-13.436l-.256-.005H89.25c-1.604 0-2.918 1.042-2.918 2.319v11.123h10.015l.254-.001zM49.408 52.376l-.03 15.902L68.899 56.47s-2.393-1.125-3.393-4.094H49.408z"/></svg>