<svg viewBox="0 0 128 128" xmlns="http://www.w3.org/2000/svg" xmlns:xlink="http://www.w3.org/1999/xlink"><defs><circle id="a" cx="44.8" cy="44.8" r="44.8"/></defs><g fill="none" fill-rule="evenodd"><path fill="#BEBBC2" d="M0 0h128v128H0z"/><path stroke="#F4F3F5" d="M.5.5h127v127H.5z"/><g transform="translate(19 19)"><mask id="b" fill="#fff"><use xlink:href="#a"/></mask><path fill="#F4F3F5" fill-rule="nonzero" mask="url(#b)" d="M0 0h90v90H0z"/></g><path d="M89.095 82.309v-5.813c0-1.794-1.484-3.248-3.314-3.248h-3.123c-1.831 0-3.315 1.454-3.315 3.248v16.11c.03 1.772 1.505 3.194 3.315 3.194h3.123c1.83 0 3.314-1.454 3.314-3.249v-3.57h-3.903v2.993h-1.945v-2.96a1.581 1.581 0 0 1 .684-1.302l3.637-2.524a3.536 3.536 0 0 0 1.527-2.9m-5.848 1.236v-6.45h1.945v5.094l-1.945 1.342m-12.554-6.13v15.749a3.308 3.308 0 0 0 3.315 3.28h3.506v-3.887H74.59V77.379h2.924v-3.888H74.59v-5.73h-3.897v5.73h-2.931v3.888h2.931m-5.369 12.426V73.248h-3.657V95.8h3.657v-5.995m0-19.833v-2.21h-3.657v3.657h3.657v-1.447" fill="#2F2839" fill-rule="nonzero"/><path d="M56.181 64.715V81.17h3.764V68.1a3.64 3.64 0 0 1 1.598-2.89l2.562-1.817V58.74l-4.16 2.917v-3.038H56.18v6.096m-6.991 8.355l3.636-2.519a3.513 3.513 0 0 0 1.527-2.872v-5.82c0-1.789-1.484-3.24-3.314-3.24h-3.123c-1.83.004-3.311 1.453-3.315 3.24v16.072c.004 1.788 1.486 3.237 3.315 3.24h3.123c1.83 0 3.314-1.45 3.314-3.24v-3.596h-3.896v2.993h-1.952v-2.953c0-.516.256-1 .685-1.3m-.685-5.396v-5.243h1.952v5.082l-1.952 1.34v-1.18M33.02 60.806v15.428a3.187 3.187 0 0 0 1.184 2.508l3.698 3.039 3.698-3.079a3.22 3.22 0 0 0 1.171-2.468V58.619h-3.903v17.333l-.986.818-.939-.785V58.62H33.02v2.187m39.235-26.569h-1.178c-1.831 0-3.315 1.453-3.315 3.246V56.79h3.897V38.06h.431l1.52.9v17.83h3.904V38.637a3.265 3.265 0 0 0-1.602-2.783l-1.945-1.146a3.333 3.333 0 0 0-1.712-.47m-12.759 0a3.35 3.35 0 0 0-2.344.95 3.205 3.205 0 0 0-.971 2.291v16.07c0 .86.35 1.684.97 2.292.622.608 1.466.95 2.345.95h3.123c1.83 0 3.314-1.452 3.314-3.241v-3.596h-3.89v2.993h-1.958v-2.96c-.002-.516.254-1 .685-1.299l3.636-2.517a3.519 3.519 0 0 0 1.527-2.893v-5.799c0-1.79-1.484-3.24-3.314-3.24h-3.123m2.534 3.816v5.109l-1.945 1.34v-6.45h1.958m-7.691-3.565v-1.14a3.291 3.291 0 0 0-1.493-2.728l-1.486-.968a5.268 5.268 0 0 0-2.904-.9H44.6V57.4h6.438a3.308 3.308 0 0 0 3.314-3.301v-19.61M48.504 48.17V32.668c.26 0 .515.075.732.218l1.22.798v19.862h-1.952v-5.375" fill="#2F2839" fill-rule="nonzero"/></g></svg>