<svg viewBox="0 0 490 100" xmlns="http://www.w3.org/2000/svg"><title>BP &quot;for a better philly&quot;</title><g fill="none" fill-rule="evenodd"><path d="M151.541 45.885c0-1.258-.339-2.31-1.016-3.158-.678-.846-1.549-1.269-2.613-1.269h-11.685v8.637h11.177c1.161 0 2.141-.363 2.94-1.089.798-.726 1.197-1.766 1.197-3.121zm-15.314-23.371v7.911h9.653c.968 0 1.85-.265 2.649-.799.798-.531 1.198-1.596 1.198-3.193 0-1.403-.339-2.407-1.016-3.012a3.484 3.484 0 0 0-2.396-.907h-10.088zm29.685 26.274c0 2.323-.484 4.319-1.451 5.988-.969 1.669-2.299 3.037-3.992 4.101-1.695 1.064-3.665 1.852-5.915 2.359-2.25.508-4.634.762-7.15.762h-25.331V10.465h29.904c1.79 0 3.411.388 4.863 1.161a12.154 12.154 0 0 1 3.701 3.012 13.787 13.787 0 0 1 2.359 4.21c.556 1.573.835 3.182.835 4.827 0 2.42-.617 4.73-1.851 6.931-1.234 2.203-3.084 3.86-5.552 4.972 2.95.871 5.285 2.384 7.004 4.537 1.717 2.153 2.576 5.044 2.576 8.673zM169.631 61.998h14.153V10.465h-14.153zM189.735 61.998V10.465h14.154v39.194h23.371v12.339h-37.525M230.961 61.998V10.465h14.153v39.194h23.371v12.339h-37.524M271.098 10.465l9.217 22.282 9.436-22.282h15.388l-17.783 34.476v17.057h-14.081V44.796l-17.492-34.331h15.315" fill="#268A8C"/><path d="M321.18 61.998h-14.154V10.465h22.21c2.516 0 4.838.52 6.968 1.56 2.129 1.041 3.956 2.396 5.48 4.065a18.964 18.964 0 0 1 3.592 5.734c.871 2.153 1.307 4.319 1.307 6.496 0 2.275-.411 4.489-1.233 6.641-.824 2.154-1.973 4.065-3.449 5.734-1.476 1.67-3.265 3.001-5.371 3.992-2.104.993-4.416 1.488-6.931 1.488h-8.419v15.823m0-39.194v11.032h7.475c.871 0 1.681-.399 2.432-1.197.75-.799 1.125-2.238 1.125-4.319 0-2.129-.436-3.58-1.307-4.355-.871-.773-1.741-1.161-2.612-1.161h-7.113M387.301 61.998h-36.727V10.465h36.073v12.339h-21.919v7.258h18.725V41.53h-18.725v8.129h22.573v12.339M436.872 61.998h-11.25l-20.468-25.331v25.331h-14.153V10.465h11.032l20.686 26.202V10.465h14.153v51.533M488.696 61.998h-11.25l-20.467-25.331v25.331h-14.154V10.465h11.032l20.686 26.202V10.465h14.153v51.533" fill="#92C4C5"/><path d="M83.814 98.342c-8.129-12.867-17.293-18.903-17.293-18.903l-.544-.554c-1.709-1.375-1.357-2.953-1.357-2.953.757-2.963 2.877-3.287 2.877-3.287 3.539-.151 4.246-1.428 4.246-1.428 1.252-2.25.05-4.905.05-4.905.223-.88 1.526-1.894 1.526-1.894.219-1.424-.192-2.135-.192-2.135.871-.775 1.279-1.504 1.279-1.504-.22-1.871.268-3.263.268-3.263.433-.547 2.396-.547 2.396-.547 2.174-1.098.755-3.403.755-3.403-1.089-1.861-2.064-4.49-2.064-4.49-1.015-2.586 2.064-6.689 2.064-6.689s13.814 4.607 18.156.334c0 0 3.484-4.168-5.103-10.196 0 0-5.767-4.388-17.289-5.04 0 0-1.084-7.234-1.52-9.645 0 0-1.413-5.15-8.701-6.905 0 0-7.392-2.631-16.634-.874 0 0-6.738.645-9.676 5.255 0 0-1.409 2.849-1.741 7.453 0 0-14.673 2.742-22.285 11.293 0 0-11.745 12.381 15.873 12.168l1.575-.117s-3.643 4.004-3.42 11.678c0 0 .133 5.537-5.414 11.127 0 0-4.388 3.42-3.329 11.666l.054.652s-3.815 3.5-6.997 7.159l-.009-.008A53.757 53.757 0 0 1-1 53.996C-1 24.192 23.166.028 52.977.028c29.81 0 53.97 24.164 53.97 53.968 0 18.365-9.171 34.588-23.182 44.346h.049M129 88.12c-1.216 0-2.324-.244-3.324-.732a8.282 8.282 0 0 1-2.58-1.944 8.782 8.782 0 0 1-1.668-2.772 8.981 8.981 0 0 1-.588-3.192c0-1.136.208-2.224.624-3.264a9.061 9.061 0 0 1 1.716-2.76 8.197 8.197 0 0 1 2.592-1.908c1-.472 2.092-.708 3.276-.708 1.216 0 2.324.252 3.324.756a8.366 8.366 0 0 1 2.568 1.98 9.088 9.088 0 0 1 1.656 2.772 8.821 8.821 0 0 1 .588 3.156 8.858 8.858 0 0 1-.612 3.264 8.619 8.619 0 0 1-1.716 2.748 8.43 8.43 0 0 1-2.604 1.896c-1 .472-2.084.708-3.252.708zm-5.424-8.64c0 .8.128 1.576.384 2.328.256.752.62 1.416 1.092 1.992a5.337 5.337 0 0 0 1.716 1.38c.672.344 1.424.516 2.256.516.864 0 1.628-.18 2.292-.54a5.392 5.392 0 0 0 1.692-1.428 6.435 6.435 0 0 0 1.056-1.992c.24-.736.36-1.488.36-2.256 0-.816-.128-1.596-.384-2.34a6.206 6.206 0 0 0-1.092-1.968 5.453 5.453 0 0 0-1.704-1.368c-.664-.344-1.404-.516-2.22-.516-.864 0-1.632.18-2.304.54a5.49 5.49 0 0 0-1.704 1.404 6.3 6.3 0 0 0-1.068 1.98 7.129 7.129 0 0 0-.372 2.268zM151.098 88h-2.64v-7.032c0-1.184-.188-2.044-.564-2.58-.376-.536-.932-.804-1.668-.804-.384 0-.768.072-1.152.216a4.034 4.034 0 0 0-1.08.612 4.767 4.767 0 0 0-.9.936c-.264.36-.468.756-.612 1.188V88h-2.64V75.448h2.4v2.52c.48-.848 1.176-1.516 2.088-2.004.912-.488 1.92-.732 3.024-.732.752 0 1.368.136 1.848.408.48.272.86.644 1.14 1.116.28.472.476 1.016.588 1.632.112.616.168 1.268.168 1.956V88zm16.404-.648c-.336.16-.8.34-1.392.54-.592.2-1.224.3-1.896.3-.416 0-.808-.056-1.176-.168a2.88 2.88 0 0 1-.972-.504c-.28-.224-.5-.516-.66-.876-.16-.36-.24-.796-.24-1.308v-7.848h-1.656v-2.04h1.656V71.32h2.64v4.128h2.736v2.04h-2.736v7.008c.032.448.172.772.42.972.248.2.556.3.924.3s.72-.064 1.056-.192c.336-.128.584-.232.744-.312l.552 2.088zm7.362.888c-.992 0-1.884-.176-2.676-.528a6.247 6.247 0 0 1-2.028-1.416 6.24 6.24 0 0 1-1.296-2.076 6.873 6.873 0 0 1-.456-2.484c0-.864.152-1.692.456-2.484a6.143 6.143 0 0 1 1.308-2.076 6.387 6.387 0 0 1 2.04-1.416c.792-.352 1.676-.528 2.652-.528.976 0 1.86.176 2.652.528a6.387 6.387 0 0 1 2.04 1.416 6.143 6.143 0 0 1 1.308 2.076c.304.792.456 1.62.456 2.484 0 .864-.152 1.692-.456 2.484a6.143 6.143 0 0 1-1.308 2.076 6.387 6.387 0 0 1-2.04 1.416c-.792.352-1.676.528-2.652.528zm-3.744-6.48c0 .608.096 1.168.288 1.68.192.512.456.956.792 1.332.336.376.732.672 1.188.888.456.216.948.324 1.476.324s1.02-.108 1.476-.324a3.627 3.627 0 0 0 1.188-.9c.336-.384.6-.832.792-1.344a4.749 4.749 0 0 0 .288-1.68c0-.592-.096-1.148-.288-1.668a4.295 4.295 0 0 0-.792-1.356 3.627 3.627 0 0 0-1.188-.9 3.404 3.404 0 0 0-1.476-.324 3.25 3.25 0 0 0-1.452.336 3.776 3.776 0 0 0-1.188.912 4.606 4.606 0 0 0-1.104 3.024zm19.89 6.48c-1.008 0-1.896-.24-2.664-.72a5.374 5.374 0 0 1-1.824-1.872v7.464h-2.64V75.448h2.328v2.256a5.482 5.482 0 0 1 1.86-1.8c.76-.448 1.62-.672 2.58-.672.864 0 1.656.176 2.376.528.72.352 1.344.824 1.872 1.416s.94 1.28 1.236 2.064a6.94 6.94 0 0 1 .444 2.472c0 .912-.136 1.764-.408 2.556a6.324 6.324 0 0 1-1.152 2.064 5.623 5.623 0 0 1-1.764 1.392 4.9 4.9 0 0 1-2.244.516zm-.864-2.256c.56 0 1.068-.12 1.524-.36.456-.24.848-.56 1.176-.96.328-.4.58-.856.756-1.368a4.84 4.84 0 0 0 .264-1.584c0-.576-.1-1.12-.3-1.632-.2-.512-.472-.96-.816-1.344a3.793 3.793 0 0 0-1.236-.912c-.48-.224-1-.336-1.56-.336-.336 0-.688.064-1.056.192a4.194 4.194 0 0 0-1.872 1.308 2.63 2.63 0 0 0-.504.972v3.288a4.86 4.86 0 0 0 1.476 1.944c.312.24.652.432 1.02.576a3.07 3.07 0 0 0 1.128.216zm20.796 2.256c-.992 0-1.884-.176-2.676-.528a6.247 6.247 0 0 1-2.028-1.416 6.24 6.24 0 0 1-1.296-2.076 6.873 6.873 0 0 1-.456-2.484c0-.864.152-1.692.456-2.484a6.143 6.143 0 0 1 1.308-2.076 6.387 6.387 0 0 1 2.04-1.416c.792-.352 1.676-.528 2.652-.528.976 0 1.86.176 2.652.528a6.387 6.387 0 0 1 2.04 1.416 6.143 6.143 0 0 1 1.308 2.076c.304.792.456 1.62.456 2.484 0 .864-.152 1.692-.456 2.484a6.143 6.143 0 0 1-1.308 2.076 6.387 6.387 0 0 1-2.04 1.416c-.792.352-1.676.528-2.652.528zm-3.744-6.48c0 .608.096 1.168.288 1.68.192.512.456.956.792 1.332.336.376.732.672 1.188.888.456.216.948.324 1.476.324s1.02-.108 1.476-.324a3.627 3.627 0 0 0 1.188-.9c.336-.384.6-.832.792-1.344a4.749 4.749 0 0 0 .288-1.68c0-.592-.096-1.148-.288-1.668a4.295 4.295 0 0 0-.792-1.356 3.627 3.627 0 0 0-1.188-.9 3.404 3.404 0 0 0-1.476-.324 3.25 3.25 0 0 0-1.452.336 3.776 3.776 0 0 0-1.188.912 4.606 4.606 0 0 0-1.104 3.024zm13.29 6.24V77.8h-1.68v-2.04h1.68v-.504c0-1.552.36-2.776 1.08-3.672.72-.896 1.696-1.344 2.928-1.344.512 0 1.016.068 1.512.204.496.136.968.324 1.416.564l-.576 1.968a3.64 3.64 0 0 0-.852-.36 3.37 3.37 0 0 0-.948-.144c-.624 0-1.1.232-1.428.696-.328.464-.492 1.136-.492 2.016v.576h3.216v2.04h-3.216V88h-2.64zm14.004 0V70.96h7.152c.768 0 1.476.16 2.124.48.648.32 1.204.74 1.668 1.26a5.94 5.94 0 0 1 1.092 1.776c.264.664.396 1.34.396 2.028 0 .72-.124 1.412-.372 2.076a5.81 5.81 0 0 1-1.044 1.776c-.448.52-.988.936-1.62 1.248a4.679 4.679 0 0 1-2.1.468h-4.608V88h-2.688zm2.688-8.304h4.44c.384 0 .732-.08 1.044-.24.312-.16.58-.384.804-.672.224-.288.4-.624.528-1.008s.192-.808.192-1.272c0-.48-.072-.912-.216-1.296a3.04 3.04 0 0 0-.6-.996 2.743 2.743 0 0 0-.876-.648 2.4 2.4 0 0 0-1.02-.228h-4.296v6.36zM260.574 88h-2.64v-7.032c0-1.152-.204-2.004-.612-2.556-.408-.552-.996-.828-1.764-.828a3.01 3.01 0 0 0-1.104.216 3.967 3.967 0 0 0-1.044.612c-.328.264-.62.576-.876.936-.256.36-.448.756-.576 1.188V88h-2.64V70.48h2.64v7.488a5.21 5.21 0 0 1 1.956-2.016 5.27 5.27 0 0 1 2.7-.72c.784 0 1.428.14 1.932.42.504.28.908.652 1.212 1.116a4.49 4.49 0 0 1 .636 1.62c.12.616.18 1.268.18 1.956V88zm3.282 0V75.448h2.64V88h-2.64zm0-14.616V70.48h2.64v2.904h-2.64zm6.042-2.904h2.64v13.896c0 .464.12.828.36 1.092.24.264.576.396 1.008.396.176 0 .38-.032.612-.096.232-.064.452-.136.66-.216l.384 2.064c-.384.176-.84.316-1.368.42a7.41 7.41 0 0 1-1.416.156c-.912 0-1.62-.248-2.124-.744s-.756-1.2-.756-2.112V70.48zm7.434 0h2.64v13.896c0 .464.12.828.36 1.092.24.264.576.396 1.008.396.176 0 .38-.032.612-.096.232-.064.452-.136.66-.216l.384 2.064c-.384.176-.84.316-1.368.42a7.41 7.41 0 0 1-1.416.156c-.912 0-1.62-.248-2.124-.744s-.756-1.2-.756-2.112V70.48zm7.578 20.472c.24.048.476.088.708.12.232.032.42.048.564.048.208 0 .388-.044.54-.132.152-.088.308-.244.468-.468.16-.224.324-.54.492-.948.168-.408.364-.932.588-1.572l-5.16-12.552h2.712l3.888 10.224 3.456-10.224h2.496l-5.688 15.456a3.91 3.91 0 0 1-1.332 1.812c-.632.488-1.444.732-2.436.732-.192 0-.392-.012-.6-.036a3.835 3.835 0 0 1-.696-.156v-2.304zM314.562 88h-2.64v-7.032c0-1.184-.188-2.044-.564-2.58-.376-.536-.932-.804-1.668-.804-.384 0-.768.072-1.152.216a4.034 4.034 0 0 0-1.08.612 4.767 4.767 0 0 0-.9.936c-.264.36-.468.756-.612 1.188V88h-2.64V75.448h2.4v2.52c.48-.848 1.176-1.516 2.088-2.004.912-.488 1.92-.732 3.024-.732.752 0 1.368.136 1.848.408.48.272.86.644 1.14 1.116.28.472.476 1.016.588 1.632.112.616.168 1.268.168 1.956V88zm8.97.24c-.976 0-1.864-.172-2.664-.516a6.2 6.2 0 0 1-2.052-1.404 6.33 6.33 0 0 1-1.32-2.064 6.688 6.688 0 0 1-.468-2.496c0-.88.156-1.716.468-2.508a6.436 6.436 0 0 1 1.32-2.088 6.113 6.113 0 0 1 2.052-1.416c.8-.344 1.696-.516 2.688-.516.976 0 1.86.176 2.652.528.792.352 1.468.82 2.028 1.404s.988 1.264 1.284 2.04a6.777 6.777 0 0 1 .372 3.396h-10.056c.048.56.18 1.064.396 1.512.216.448.496.836.84 1.164a3.682 3.682 0 0 0 2.556 1.02c.352 0 .7-.044 1.044-.132.344-.088.66-.216.948-.384a3.36 3.36 0 0 0 .768-.612c.224-.24.4-.504.528-.792l2.256.648c-.432.944-1.148 1.716-2.148 2.316-1 .6-2.164.9-3.492.9zm3.816-7.464a4.221 4.221 0 0 0-.396-1.464 3.77 3.77 0 0 0-.828-1.14 3.694 3.694 0 0 0-1.176-.732 3.838 3.838 0 0 0-1.416-.264 3.745 3.745 0 0 0-2.568.996 3.608 3.608 0 0 0-.816 1.14 4.393 4.393 0 0 0-.384 1.464h7.584zm20.298-5.328h2.52L344.886 88h-2.184l-2.328-5.832L338.046 88h-2.184l-5.304-12.552h2.52l4.056 10.008 1.824-4.656-2.184-5.328h2.16l1.44 3.936 1.416-3.936h2.16l-2.16 5.328 1.824 4.656 4.032-10.008zm8.73 12.792a9.613 9.613 0 0 1-3.012-.492c-1-.328-1.86-.796-2.58-1.404l1.056-1.68c.752.544 1.496.956 2.232 1.236.736.28 1.488.42 2.256.42.784 0 1.404-.152 1.86-.456.456-.304.684-.736.684-1.296 0-.528-.256-.912-.768-1.152-.512-.24-1.312-.504-2.4-.792a30.192 30.192 0 0 1-2.016-.6c-.56-.192-1.016-.416-1.368-.672-.352-.256-.608-.552-.768-.888-.16-.336-.24-.744-.24-1.224 0-.64.124-1.208.372-1.704a3.657 3.657 0 0 1 1.032-1.26c.44-.344.956-.604 1.548-.78a6.71 6.71 0 0 1 1.92-.264c.944 0 1.824.144 2.64.432a6.87 6.87 0 0 1 2.184 1.248l-1.128 1.584c-1.168-.928-2.408-1.392-3.72-1.392-.672 0-1.236.14-1.692.42-.456.28-.684.724-.684 1.332 0 .256.048.472.144.648.096.176.252.328.468.456.216.128.496.244.84.348.344.104.772.22 1.284.348.848.208 1.58.416 2.196.624.616.208 1.124.452 1.524.732.4.28.696.608.888.984.192.376.288.828.288 1.356 0 1.2-.452 2.148-1.356 2.844-.904.696-2.132 1.044-3.684 1.044z" fill="#268A8C"/></g></svg>